<?xml version="1.0" encoding="utf-8"?>
<!-- Generator: Adobe Illustrator 16.0.0, SVG Export Plug-In . SVG Version: 6.00 Build 0)  -->
<!DOCTYPE svg PUBLIC "-//W3C//DTD SVG 1.1//EN" "http://www.w3.org/Graphics/SVG/1.1/DTD/svg11.dtd">
<svg version="1.1" id="Layer_1" xmlns="http://www.w3.org/2000/svg" xmlns:xlink="http://www.w3.org/1999/xlink" x="0px" y="0px"
	 width="800px" height="200px" viewBox="0 0 800 200" enable-background="new 0 0 800 200" xml:space="preserve">
<path fill-rule="evenodd" clip-rule="evenodd" d="M155.775,61.525v26.842h63.014c1.436,0,2.535-0.333,3.302-1.004
	c0.766-0.668,1.387-1.864,1.867-3.588h2.296v25.335h-2.296c-0.48-1.725-1.101-2.92-1.867-3.586
	c-0.768-0.676-1.866-1.006-3.302-1.006h-88.996v-2.297c1.722-0.479,2.918-1.101,3.588-1.866c0.668-0.765,1.001-1.89,1.006-3.373
	V14.085c0-1.484-0.338-2.608-1.006-3.374c-0.67-0.765-1.867-1.386-3.588-1.866V6.55h87.274c1.436,0,2.534-0.335,3.302-1.006
	c0.765-0.718,1.386-1.937,1.866-3.659h2.296v25.334h-2.296c-0.479-1.672-1.101-2.846-1.866-3.517
	c-0.768-0.668-1.867-1.001-3.302-1.004h-61.292v23.254h39.761c1.436,0,2.534-0.334,3.302-1.005c0.765-0.67,1.386-1.863,1.866-3.59
	H203V66.12h-2.296c-0.479-1.675-1.101-2.847-1.866-3.518c-0.768-0.718-1.867-1.077-3.302-1.077H155.775z"/>
<path fill-rule="evenodd" clip-rule="evenodd" d="M279.189,88.368h26.844c8.563,0,14.998-1.169,19.306-3.515
	c9.234-5.024,13.85-14.806,13.852-29.355c0-10.526-2.49-18.586-7.465-24.187c-2.776-3.109-6.125-5.31-10.046-6.602
	c-3.926-1.342-9.141-2.008-15.647-2.01h-26.844V88.368z M257.802,96.982V14.085c0-1.484-0.335-2.608-1.004-3.374
	c-0.67-0.765-1.866-1.386-3.587-1.866V6.55h54.616c11.962,0,21.149,1.363,27.563,4.089c9.187,3.973,15.98,10.53,20.383,19.667
	c3.492,7.177,5.237,15.574,5.24,25.19c0,16.892-5.192,29.764-15.577,38.613c-4.354,3.732-9.451,6.413-15.286,8.038
	c-5.837,1.578-13.278,2.37-22.323,2.37H253.21v-2.297c1.722-0.479,2.917-1.101,3.587-1.866
	C257.466,99.591,257.802,98.466,257.802,96.982z"/>
<path fill-rule="evenodd" clip-rule="evenodd" d="M414.161,88.368h60.216c1.483,0,2.604-0.333,3.375-1.004
	c0.766-0.668,1.384-1.864,1.866-3.588h2.296v25.335h-2.296c-0.482-1.725-1.101-2.92-1.866-3.586
	c-0.771-0.676-1.892-1.006-3.375-1.006H388.18v-2.297c1.724-0.479,2.917-1.101,3.59-1.866c0.667-0.765,1.002-1.89,1.004-3.373
	V14.085c0-1.484-0.337-2.608-1.004-3.374c-0.672-0.765-1.866-1.386-3.59-1.866V6.55h30.574v2.296
	c-1.721,0.43-2.92,1.053-3.586,1.866c-0.671,0.766-1.007,1.89-1.007,3.374V88.368z"/>
<path fill-rule="evenodd" clip-rule="evenodd" d="M508.509,96.982V14.014c0-1.436-0.336-2.537-1.002-3.302
	c-0.671-0.765-1.866-1.386-3.591-1.866V6.55h30.576v2.296c-1.724,0.43-2.919,1.053-3.59,1.866c-0.671,0.766-1.002,1.867-1.002,3.302
	v82.968c0,1.483,0.331,2.631,1.002,3.444c0.718,0.768,1.913,1.363,3.59,1.795v2.297h-30.576v-2.297
	c1.725-0.479,2.92-1.101,3.591-1.866C508.173,99.591,508.509,98.466,508.509,96.982z"/>
<path fill-rule="evenodd" clip-rule="evenodd" d="M588,37.41v59.573c0,1.483,0.335,2.608,1.006,3.373
	c0.671,0.766,1.866,1.387,3.591,1.866v2.297h-28.784v-2.297c1.726-0.479,2.92-1.101,3.591-1.866c0.667-0.765,1.003-1.89,1.007-3.373
	V14.014c0-1.436-0.34-2.537-1.007-3.302c-0.671-0.765-1.865-1.386-3.591-1.866V6.55h33.303v2.296
	c-2.06,0.527-3.087,1.627-3.087,3.302c0,1.148,0.671,2.417,2.013,3.803l54.045,56.197V14.014c0-1.436-0.341-2.537-1.007-3.302
	c-0.671-0.765-1.865-1.386-3.591-1.866V6.55h28.784v2.296c-1.725,0.479-2.919,1.101-3.59,1.866
	c-0.671,0.766-1.003,1.867-1.003,3.302v82.968c0,1.483,0.332,2.608,1.003,3.373c0.671,0.766,1.865,1.387,3.59,1.866v2.297h-30.865
	v-2.297c2.013-0.433,3.015-1.46,3.015-3.087c0-0.955-1.17-2.632-3.517-5.024L588,37.41z"/>
<path fill-rule="evenodd" clip-rule="evenodd" d="M730.325,61.525v26.842h63.014c1.438,0,2.536-0.333,3.303-1.004
	c0.765-0.668,1.388-1.864,1.866-3.588h2.296v25.335h-2.296c-0.479-1.725-1.102-2.92-1.866-3.586
	c-0.767-0.676-1.865-1.006-3.303-1.006h-88.993v-2.297c1.719-0.479,2.914-1.101,3.585-1.866c0.671-0.765,1.002-1.89,1.007-3.373
	V14.085c0-1.484-0.336-2.608-1.007-3.374c-0.671-0.765-1.866-1.386-3.585-1.866V6.55h87.273c1.432,0,2.532-0.335,3.299-1.006
	c0.765-0.718,1.388-1.937,1.865-3.659h2.301v25.334h-2.301c-0.478-1.672-1.101-2.846-1.865-3.517
	c-0.767-0.668-1.867-1.001-3.299-1.004h-61.294v23.254h39.76c1.438,0,2.537-0.334,3.303-1.005c0.766-0.67,1.385-1.863,1.866-3.59
	h2.296V66.12h-2.296c-0.481-1.675-1.101-2.847-1.866-3.518c-0.766-0.718-1.865-1.077-3.303-1.077H730.325z"/>
<path d="M42.57,48.392H59.97c4.881,0,8.327-0.142,10.337-0.43c2.007-0.288,3.85-0.883,5.525-1.795
	c3.635-1.96,5.453-5.502,5.454-10.623c0-5.117-1.819-8.658-5.454-10.621c-1.722-0.957-3.564-1.557-5.525-1.795
	c-1.917-0.286-5.362-0.43-10.337-0.43H29.532h-2.576H9.971H7.464c-1.436,0.002-2.535,0.335-3.302,1.004
	c-0.764,0.671-1.385,1.845-1.866,3.517H0V1.885h2.296c0.481,1.723,1.103,2.941,1.866,3.659C4.93,6.215,6.028,6.55,7.464,6.55h19.122
	h35.68c7.465,0,13.372,0.43,17.729,1.29c4.401,0.862,8.23,2.37,11.484,4.524c3.779,2.489,6.601,5.863,8.469,10.119
	c1.77,4.115,2.653,8.519,2.655,13.206c0,15.982-8.877,25.336-26.627,28.063L94.995,90.81c3.349,4.736,5.79,7.8,7.32,9.185
	c1.581,1.341,3.494,2.083,5.745,2.227v2.297H72.603v-2.297c2.44-0.383,3.659-1.243,3.659-2.584c0-0.862-1.125-2.943-3.372-6.245
	L53.082,64.542L42.57,48.392z"/>
<path fill="#ED1C24" d="M17.612,51.646v59.442c0,9.729,7.886,17.611,17.612,17.611h765.58v17.612H35.224
	C15.772,146.313,0,130.545,0,111.089V51.646H17.612z"/>
<path fill-rule="evenodd" clip-rule="evenodd" d="M86.84,183.738c0,4.828-1.133,8.523-3.397,11.08
	c-2.266,2.564-5.549,3.841-9.849,3.841c-4.235,0-7.454-1.294-9.651-3.892c-2.201-2.623-3.3-6.334-3.3-11.128v-19.995h5.17v19.849
	c0,6.665,2.625,9.997,7.879,9.997c5.317,0,7.977-3.221,7.977-9.653v-20.192h5.17V183.738z"/>
<path fill-rule="evenodd" clip-rule="evenodd" d="M141.069,163.645l-12.362,20.833v13.64h-5.171v-13.64l-12.36-20.833h6.058
	l5.367,9.508c1.413,2.493,2.593,4.776,3.548,6.845c0.885-1.939,2.065-4.205,3.545-6.797l5.415-9.556H141.069z"/>
<path fill-rule="evenodd" clip-rule="evenodd" d="M186.581,180.883c0-8.144-3.842-12.211-11.521-12.211h-4.235v24.423h4.235
	C182.739,193.095,186.581,189.022,186.581,180.883z M191.851,180.883c0,5.744-1.675,10.144-5.022,13.196
	c-2.988,2.691-6.912,4.038-11.769,4.038h-9.408v-34.473h9.408c4.955,0,8.912,1.351,11.866,4.042
	C190.208,170.706,191.851,175.104,191.851,180.883z"/>
<path fill-rule="evenodd" clip-rule="evenodd" d="M243.125,183.738c0,4.828-1.134,8.523-3.399,11.08
	c-2.264,2.564-5.546,3.841-9.846,3.841c-4.236,0-7.454-1.294-9.654-3.892c-2.201-2.623-3.298-6.334-3.298-11.128v-19.995h5.169
	v19.849c0,6.665,2.627,9.997,7.882,9.997c5.316,0,7.976-3.221,7.976-9.653v-20.192h5.171V183.738z"/>
<path fill-rule="evenodd" clip-rule="evenodd" d="M324.398,188.224c0,3.216-1.018,5.727-3.053,7.532
	c-2.2,1.936-5.433,2.903-9.7,2.903c-4.992,0-9.079-1.854-12.264-5.564l3.693-3.595c2.495,2.727,5.483,4.089,8.964,4.089
	c4.759,0,7.14-1.677,7.14-5.022c0-1.314-0.574-2.364-1.725-3.155c-1.115-0.817-3.134-1.673-6.056-2.559
	c-3.972-1.183-6.68-2.377-8.125-3.595c-1.774-1.479-2.66-3.658-2.66-6.549c0-2.924,1.084-5.255,3.249-6.996
	c2.167-1.737,4.876-2.609,8.127-2.609c4.299,0,8.06,1.561,11.276,4.679l-3.644,3.696c-2.168-2.2-4.842-3.301-8.028-3.301
	c-1.903,0-3.348,0.412-4.333,1.229c-0.952,0.791-1.427,1.806-1.427,3.054c0,1.215,0.507,2.2,1.526,2.957
	c1.049,0.724,3.053,1.526,6.006,2.412c3.81,1.148,6.499,2.361,8.078,3.643C323.413,183.115,324.398,185.363,324.398,188.224z"/>
<path fill-rule="evenodd" clip-rule="evenodd" d="M356.319,158.18c0-0.92-0.331-1.689-0.986-2.313
	c-0.624-0.658-1.378-0.984-2.267-0.984c-0.917,0-1.706,0.326-2.362,0.984c-0.624,0.623-0.938,1.393-0.938,2.313
	c0,0.886,0.314,1.659,0.938,2.313c0.656,0.623,1.444,0.938,2.362,0.938c0.889,0,1.643-0.314,2.267-0.938
	C355.989,159.839,356.319,159.065,356.319,158.18z M355.629,198.117h-5.17v-34.473h5.17V198.117z"/>
<path fill-rule="evenodd" clip-rule="evenodd" d="M406.018,188.224c0,3.216-1.02,5.727-3.053,7.532
	c-2.202,1.936-5.435,2.903-9.703,2.903c-4.989,0-9.079-1.854-12.261-5.564l3.693-3.595c2.495,2.727,5.482,4.089,8.961,4.089
	c4.76,0,7.143-1.677,7.143-5.022c0-1.314-0.577-2.364-1.725-3.155c-1.115-0.817-3.134-1.673-6.058-2.559
	c-3.972-1.183-6.68-2.377-8.125-3.595c-1.774-1.479-2.659-3.658-2.659-6.549c0-2.924,1.083-5.255,3.25-6.996
	c2.167-1.737,4.876-2.609,8.125-2.609c4.302,0,8.06,1.561,11.277,4.679l-3.643,3.696c-2.167-2.2-4.843-3.301-8.028-3.301
	c-1.905,0-3.348,0.412-4.334,1.229c-0.95,0.791-1.428,1.806-1.428,3.054c0,1.215,0.509,2.2,1.527,2.957
	c1.051,0.724,3.053,1.526,6.008,2.412c3.808,1.148,6.5,2.361,8.078,3.643C405.033,183.115,406.018,185.363,406.018,188.224z"/>
<polygon fill-rule="evenodd" clip-rule="evenodd" points="454.928,168.719 444.879,168.719 444.879,198.117 439.711,198.117 
	439.711,168.719 429.662,168.719 429.662,163.645 454.928,163.645 "/>
<polygon fill-rule="evenodd" clip-rule="evenodd" points="502.756,198.117 479.807,198.117 479.807,163.645 502.016,163.645 
	502.016,168.672 484.976,168.672 484.976,177.189 494.874,177.189 494.874,182.212 484.976,182.212 484.976,193.095 
	502.756,193.095 "/>
<path fill-rule="evenodd" clip-rule="evenodd" d="M559.002,198.117h-5.074v-18.219c0-2.727,0.035-4.747,0.099-6.059
	c-0.46,1.147-1.199,2.955-2.214,5.418l-8.372,19.401l-8.277-19.401c-0.524-1.248-1.26-3.053-2.214-5.418
	c0.064,1.312,0.099,3.332,0.099,6.059v18.219h-4.876v-34.473h5.319l7.73,18.37c0.658,1.479,1.444,3.448,2.365,5.911
	c0.425-1.216,1.199-3.186,2.313-5.911l7.584-18.37h5.518V198.117z"/>
<polygon fill-rule="evenodd" clip-rule="evenodd" points="608.402,198.117 586.048,198.117 586.048,163.645 591.216,163.645 
	591.216,193.047 608.402,193.047 "/>
<polygon fill-rule="evenodd" clip-rule="evenodd" points="656.375,198.117 633.428,198.117 633.428,163.645 655.636,163.645 
	655.636,168.672 638.601,168.672 638.601,177.189 648.498,177.189 648.498,182.212 638.601,182.212 638.601,193.095 
	656.375,193.095 "/>
<path fill-rule="evenodd" clip-rule="evenodd" d="M702.776,174.086c0-1.772-0.542-3.136-1.626-4.086
	c-1.05-0.984-2.46-1.479-4.234-1.479h-10.045v11.08h10.045C700.824,179.602,702.776,177.767,702.776,174.086z M707.996,173.939
	c0,5.452-2.529,8.814-7.581,10.096l7.039,14.082h-5.956l-6.845-13.64h-7.782v13.64h-5.075v-34.473h15.12
	c3.215,0,5.813,0.822,7.781,2.465C706.895,167.949,707.996,170.56,707.996,173.939z"/>
<path fill-rule="evenodd" clip-rule="evenodd" d="M740.163,158.18c0-0.92-0.327-1.689-0.984-2.313
	c-0.623-0.658-1.38-0.984-2.267-0.984c-0.921,0-1.708,0.326-2.364,0.984c-0.624,0.623-0.934,1.393-0.934,2.313
	c0,0.886,0.31,1.659,0.934,2.313c0.656,0.623,1.443,0.938,2.364,0.938c0.887,0,1.644-0.314,2.267-0.938
	C739.836,159.839,740.163,159.065,740.163,158.18z M739.475,198.117h-5.172v-34.473h5.172V198.117z"/>
</svg>
